HIERARCHY
ROOT Hips
{
	OFFSET 0.000000 35.082581 0.000000
	CHANNELS 6 Xposition Yposition Zposition Xrotation Yrotation Zrotation 
	JOINT Spine
	{
		OFFSET 0.000000 6.876099 0.125700
		CHANNELS 3 Xrotation Yrotation Zrotation
		JOINT Spine1
		{
			OFFSET 0.000000 5.730043 0.104720
			CHANNELS 3 Xrotation Yrotation Zrotation
			JOINT Spine1_split
			{
				OFFSET 0.000000 5.730043 0.104720
				CHANNELS 3 Xrotation Yrotation Zrotation
				JOINT Spine2
				{
					OFFSET 0.000000 5.730043 0.104720
					CHANNELS 3 Xrotation Yrotation Zrotation
					JOINT Neck
					{
						OFFSET 0.000000 10.314075 0.188496
						CHANNELS 3 Xrotation Yrotation Zrotation
						JOINT Head
						{
							OFFSET 0.000000 7.643700 -2.377400
							CHANNELS 3 Xrotation Yrotation Zrotation
							JOINT HeadTop_End
							{
								OFFSET 0.000000 43.788605 -13.619600
								CHANNELS 3 Xrotation Yrotation Zrotation
								End Site
								{
									OFFSET 0.000000 0.000000 0.000000
								}
							}
						}
					}
					JOINT LeftShoulder
					{
						OFFSET 2.196100 4.412489 0.087492
						CHANNELS 3 Xrotation Yrotation Zrotation
						JOINT LeftShoulder_split
						{
							OFFSET 2.196100 4.412489 0.087492
							CHANNELS 3 Xrotation Yrotation Zrotation
							JOINT LeftArm
							{
								OFFSET 8.771219 -2.981674 -0.026999
								CHANNELS 3 Xrotation Yrotation Zrotation
								JOINT LeftForeArm
								{
									OFFSET 8.512804 0.000000 -0.000000
									CHANNELS 3 Xrotation Yrotation Zrotation
									JOINT LeftHand
									{
										OFFSET 18.484802 0.000000 -0.000000
										CHANNELS 3 Xrotation Yrotation Zrotation
										JOINT LeftHandThumb1
										{
											OFFSET 2.499420 -1.158070 2.653252
											CHANNELS 3 Xrotation Yrotation Zrotation
											JOINT LeftHandThumb2
											{
												OFFSET 2.370079 -1.368366 1.368366
												CHANNELS 3 Xrotation Yrotation Zrotation
												JOINT LeftHandThumb3
												{
													OFFSET 2.676727 -1.545410 1.545409
													CHANNELS 3 Xrotation Yrotation Zrotation
													JOINT LeftHandThumb4
													{
														OFFSET 1.692226 -0.977005 0.977007
														CHANNELS 3 Xrotation Yrotation Zrotation
														End Site
														{
															OFFSET 0.000000 0.000000 0.000000
														}
													}
												}
											}
										}
										JOINT LeftHandIndex1
										{
											OFFSET 7.924831 -0.457527 2.345128
											CHANNELS 3 Xrotation Yrotation Zrotation
											JOINT LeftHandIndex2
											{
												OFFSET 3.643303 0.000000 0.000000
												CHANNELS 3 Xrotation Yrotation Zrotation
												JOINT LeftHandIndex3
												{
													OFFSET 3.810799 0.000000 0.000000
													CHANNELS 3 Xrotation Yrotation Zrotation
													JOINT LeftHandIndex4
													{
														OFFSET 2.403702 0.000000 0.000000
														CHANNELS 3 Xrotation Yrotation Zrotation
														End Site
														{
															OFFSET 0.000000 0.000000 0.000000
														}
													}
												}
											}
										}
										JOINT LeftHandMiddle1
										{
											OFFSET 8.563995 0.000000 -0.000000
											CHANNELS 3 Xrotation Yrotation Zrotation
											JOINT LeftHandMiddle2
											{
												OFFSET 3.861618 0.000000 0.000000
												CHANNELS 3 Xrotation Yrotation Zrotation
												JOINT LeftHandMiddle3
												{
													OFFSET 3.701603 0.000000 0.000000
													CHANNELS 3 Xrotation Yrotation Zrotation
													JOINT LeftHandMiddle4
													{
														OFFSET 2.322544 0.000000 0.000000
														CHANNELS 3 Xrotation Yrotation Zrotation
														End Site
														{
															OFFSET 0.000000 0.000000 0.000000
														}
													}
												}
											}
										}
										JOINT LeftHandRing1
										{
											OFFSET 8.426460 -0.424637 -3.286992
											CHANNELS 3 Xrotation Yrotation Zrotation
											JOINT LeftHandRing2
											{
												OFFSET 3.126408 0.000000 0.000000
												CHANNELS 3 Xrotation Yrotation Zrotation
												JOINT LeftHandRing3
												{
													OFFSET 3.085026 0.000000 0.000000
													CHANNELS 3 Xrotation Yrotation Zrotation
													JOINT LeftHandRing4
													{
														OFFSET 1.644005 0.000000 0.000000
														CHANNELS 3 Xrotation Yrotation Zrotation
														End Site
														{
															OFFSET 0.000000 0.000000 0.000000
														}
													}
												}
											}
										}
									}
								}
							}
						}
					}
					JOINT RightShoulder
					{
						OFFSET -2.196100 4.412496 0.070690
						CHANNELS 3 Xrotation Yrotation Zrotation
						JOINT RightShoulder_split
						{
							OFFSET -2.196100 4.412496 0.070690
							CHANNELS 3 Xrotation Yrotation Zrotation
							JOINT RightArm
							{
								OFFSET -8.771282 -2.981682 -0.094208
								CHANNELS 3 Xrotation Yrotation Zrotation
								JOINT RightForeArm
								{
									OFFSET -8.494598 0.000000 0.000000
									CHANNELS 3 Xrotation Yrotation Zrotation
									JOINT RightHand
									{
										OFFSET -18.483803 0.000000 0.000001
										CHANNELS 3 Xrotation Yrotation Zrotation
										JOINT RightHandThumb1
										{
											OFFSET -2.527351 -1.008072 2.575253
											CHANNELS 3 Xrotation Yrotation Zrotation
											JOINT RightHandThumb2
											{
												OFFSET -2.321518 -1.340328 1.340329
												CHANNELS 3 Xrotation Yrotation Zrotation
												JOINT RightHandThumb3
												{
													OFFSET -2.657753 -1.534454 1.534455
													CHANNELS 3 Xrotation Yrotation Zrotation
													JOINT RightHandThumb4
													{
														OFFSET -1.807510 -1.043568 1.043567
														CHANNELS 3 Xrotation Yrotation Zrotation
														End Site
														{
															OFFSET 0.000000 0.000000 0.000000
														}
													}
												}
											}
										}
										JOINT RightHandIndex1
										{
											OFFSET -8.811420 0.015533 2.887987
											CHANNELS 3 Xrotation Yrotation Zrotation
											JOINT RightHandIndex2
											{
												OFFSET -3.537502 0.000000 0.000000
												CHANNELS 3 Xrotation Yrotation Zrotation
												JOINT RightHandIndex3
												{
													OFFSET -3.356201 0.000000 0.000000
													CHANNELS 3 Xrotation Yrotation Zrotation
													JOINT RightHandIndex4
													{
														OFFSET -1.933098 0.000000 0.000000
														CHANNELS 3 Xrotation Yrotation Zrotation
														End Site
														{
															OFFSET 0.000000 0.000000 0.000000
														}
													}
												}
											}
										}
										JOINT RightHandMiddle1
										{
											OFFSET -8.178135 0.000000 0.000000
											CHANNELS 3 Xrotation Yrotation Zrotation
											JOINT RightHandMiddle2
											{
												OFFSET -3.901302 0.000000 0.000000
												CHANNELS 3 Xrotation Yrotation Zrotation
												JOINT RightHandMiddle3
												{
													OFFSET -3.909599 0.000000 0.000000
													CHANNELS 3 Xrotation Yrotation Zrotation
													JOINT RightHandMiddle4
													{
														OFFSET -2.376003 0.000000 0.000000
														CHANNELS 3 Xrotation Yrotation Zrotation
														End Site
														{
															OFFSET 0.000000 0.000000 0.000000
														}
													}
												}
											}
										}
										JOINT RightHandRing1
										{
											OFFSET -7.559013 0.014137 -2.865403
											CHANNELS 3 Xrotation Yrotation Zrotation
											JOINT RightHandRing2
											{
												OFFSET -3.449306 0.000000 0.000000
												CHANNELS 3 Xrotation Yrotation Zrotation
												JOINT RightHandRing3
												{
													OFFSET -3.362106 0.000000 0.000000
													CHANNELS 3 Xrotation Yrotation Zrotation
													JOINT RightHandRing4
													{
														OFFSET -2.076401 0.000000 0.000000
														CHANNELS 3 Xrotation Yrotation Zrotation
														End Site
														{
															OFFSET 0.000000 0.000000 0.000000
														}
													}
												}
											}
										}
									}
								}
							}
						}
					}
				}
			}
		}
	}
	JOINT LeftUpLeg
	{
		OFFSET 10.205400 -3.823500 0.155100
		CHANNELS 3 Xrotation Yrotation Zrotation
		JOINT LeftLeg
		{
			OFFSET 0.708757 -12.982077 0.567790
			CHANNELS 3 Xrotation Yrotation Zrotation
			JOINT LeftFoot
			{
				OFFSET -0.708756 -10.717838 -2.184338
				CHANNELS 3 Xrotation Yrotation Zrotation
				JOINT LeftToeBase
				{
					OFFSET 0.108149 -7.191104 7.560241
					CHANNELS 3 Xrotation Yrotation Zrotation
					JOINT LeftToe_End
					{
						OFFSET 0.070230 0.081724 4.490308
						CHANNELS 3 Xrotation Yrotation Zrotation
						End Site
						{
							OFFSET 0.000000 0.000000 0.000000
						}
					}
				}
			}
		}
	}
	JOINT RightUpLeg
	{
		OFFSET -10.205400 -3.823500 0.005500
		CHANNELS 3 Xrotation Yrotation Zrotation
		JOINT RightLeg
		{
			OFFSET -0.708756 -12.982134 0.610632
			CHANNELS 3 Xrotation Yrotation Zrotation
			JOINT RightFoot
			{
				OFFSET 0.708754 -10.717769 -1.945823
				CHANNELS 3 Xrotation Yrotation Zrotation
				JOINT RightToeBase
				{
					OFFSET -0.108140 -7.191069 7.372968
					CHANNELS 3 Xrotation Yrotation Zrotation
					JOINT RightToe_End
					{
						OFFSET -0.070227 0.081735 4.479403
						CHANNELS 3 Xrotation Yrotation Zrotation
						End Site
						{
							OFFSET 0.000000 0.000000 0.000000
						}
					}
				}
			}
		}
	}
}
MOTION
Frames: 6
Frame Time: 0.016667
-2.545889 33.293053 -3.516095 -9.386989 -0.849213 3.128245 7.152971 1.493376 -4.106594 14.244011 3.269501 -3.077380 0.000000 0.000000 0.000000 14.269167 3.169306 -3.056463 34.427070 0.786426 -4.647341 -1.158473 2.164344 -5.573707 -0.000002 0.000001 -0.000002 -1.697391 -21.196999 -25.775442 0.000000 0.000000 0.000000 -1.040204 -44.501790 -31.977908 4.422183 -24.531593 1.305881 -9.189769 -9.383456 -4.673701 -20.843961 2.778265 -4.205216 -15.861911 33.847808 10.250606 -0.000012 0.000013 -0.000016 -0.000002 0.000001 0.000002 -3.032239 19.342230 -21.628900 6.299682 9.746931 -60.829030 -0.000007 0.000002 -0.000002 -0.000001 0.000002 -0.000002 -13.487433 18.094995 -22.029650 6.757689 12.670237 -69.483678 -0.000002 -0.000001 -0.000007 0.000001 0.000003 -0.000001 -15.276664 16.701593 -37.493354 3.110967 12.310348 -81.609539 -0.000003 0.000006 -0.000005 0.000001 -0.000005 0.000001 -1.956266 23.252517 25.557166 0.000000 0.000000 0.000000 -0.642678 20.673874 37.850132 388.848024 40.014373 -373.261177 -9.479939 7.418344 17.742875 -21.511952 -2.863850 5.102385 -16.456427 -31.619592 -10.828970 0.000002 0.000004 -0.000012 0.000002 0.000001 0.000003 -1.117325 -20.400097 22.512874 6.671883 -9.934597 63.001023 0.000001 -0.000008 0.000003 0.000000 -0.000000 -0.000000 -13.816703 -17.423249 21.320944 6.561182 -12.925910 68.651092 0.000007 0.000004 -0.000007 -0.000000 -0.000001 0.000000 -14.137721 -15.831736 36.119205 3.239843 -12.615791 81.908284 -0.000007 0.000006 0.000023 0.000001 -0.000001 0.000001 -5.748683 8.205478 -2.790061 25.517469 -0.806460 -0.497340 -11.043420 4.225142 2.330892 -0.000010 0.000000 0.000001 0.000000 -0.000000 0.000000 -7.878425 -14.516510 -16.469975 38.016228 2.927456 1.347804 -20.527775 -16.264801 4.423396 -0.000208 -0.000009 0.000262 0.000000 -0.000002 -0.000000 
-2.434700 33.362934 -3.498596 -9.896076 -1.146069 3.310841 6.785000 1.547916 -4.225758 13.499554 3.300435 -3.157294 0.000000 0.000000 0.000000 13.525421 3.199132 -3.135813 33.353426 1.110184 -4.334505 -1.596122 2.537175 -5.856431 0.000002 0.000000 -0.000000 -1.205566 -20.666522 -24.364041 0.000000 0.000000 0.000000 1.602658 -41.933608 -31.598234 4.490931 -26.563570 0.875705 -9.122652 -9.161217 -3.757671 -20.813325 1.465093 -4.329379 -17.962364 34.591445 10.894310 -0.000017 0.000012 -0.000018 -0.000002 -0.000003 -0.000002 -2.865785 20.397631 -21.773245 6.720227 9.983976 -64.054894 -0.000009 -0.000003 0.000002 -0.000001 0.000002 -0.000001 -14.124308 18.570900 -22.021440 7.166293 13.162452 -72.156092 0.000001 -0.000001 -0.000009 -0.000001 -0.000002 0.000001 -15.699038 16.729300 -37.472180 3.380870 13.021833 -85.361211 -0.000002 0.000010 -0.000009 0.000000 -0.000002 -0.000001 -1.348453 22.309566 23.910450 0.000000 0.000000 0.000000 2.405172 20.579674 39.044838 390.735042 42.386105 -375.654503 -9.510659 7.694582 16.288767 -21.155649 -1.499662 4.801388 -18.479154 -32.518558 -11.171445 0.000006 0.000004 -0.000015 0.000000 -0.000002 0.000001 -1.414010 -21.180234 23.136492 7.201685 -10.089872 66.392232 0.000000 -0.000008 0.000003 0.000000 -0.000000 -0.000000 -13.696589 -18.828243 22.659706 7.302387 -13.300228 72.456108 0.000006 0.000003 -0.000007 -0.000000 0.000001 0.000001 -14.448072 -16.935574 37.866009 3.852954 -13.239541 86.752138 -0.000007 0.000006 0.000020 -0.000002 -0.000001 -0.000002 -4.098651 8.632296 -3.353337 23.732484 -0.762550 -0.460454 -10.351412 4.057275 2.553128 -0.000016 -0.000004 0.000001 0.000000 -0.000001 0.000000 -7.275660 -14.434734 -17.029315 37.434617 2.964736 1.423215 -20.034869 -16.005263 4.733810 -0.000146 0.000004 0.000192 0.000000 0.000006 -0.000000 
-2.325406 33.401348 -3.486629 -10.190399 -1.349658 3.479099 6.430465 1.556669 -4.336595 12.785435 3.259335 -3.237265 0.000000 0.000000 0.000000 12.811439 3.157067 -3.215350 32.190986 1.385669 -4.182466 -2.117602 2.779014 -5.803774 -0.000001 0.000000 -0.000001 -0.606957 -19.983610 -22.751667 0.000000 0.000000 0.000000 3.591655 -39.451149 -31.646951 5.236541 -28.036342 0.947480 -9.048456 -8.981111 -2.662389 -20.797713 0.593383 -4.405186 -19.377559 35.076788 11.340715 -0.000010 0.000008 -0.000016 -0.000002 -0.000002 -0.000000 -2.843848 21.049279 -21.555222 6.983281 10.133576 -66.089962 -0.000006 0.000004 0.000001 0.000001 -0.000000 -0.000001 -14.712810 18.654529 -21.681833 7.427310 13.475985 -73.762211 0.000001 -0.000007 -0.000008 0.000001 0.000001 0.000001 -16.114202 16.583353 -37.151373 3.571172 13.484248 -87.649489 -0.000002 0.000011 -0.000012 -0.000004 -0.000001 -0.000003 -0.713640 21.402188 22.136614 0.000000 0.000000 0.000000 4.746091 20.510858 40.324849 391.595700 44.303674 -377.134824 -9.517312 8.185774 14.466662 -20.919488 -0.599309 4.588759 -19.743229 -33.270575 -11.347278 0.000003 0.000008 -0.000012 -0.000003 -0.000000 0.000001 -1.732028 -21.630743 23.353243 7.525098 -10.184754 68.548530 0.000000 -0.000008 0.000003 0.000000 0.000000 -0.000000 -13.647348 -19.748121 23.428143 7.815843 -13.530631 74.982145 0.000006 0.000003 -0.000006 0.000000 -0.000000 0.000000 -14.832499 -17.503031 38.828058 4.283396 -13.641156 89.897891 -0.000005 0.000008 0.000019 0.000001 -0.000001 -0.000004 -2.988195 9.000825 -3.875421 22.464989 -0.732892 -0.417460 -9.854223 3.877226 2.781686 0.000009 0.000001 0.000001 -0.000000 0.000000 0.000000 -7.020026 -14.340621 -17.579882 37.156796 3.019472 1.482273 -19.705868 -15.831892 5.057046 -0.000149 0.000003 0.000201 -0.000000 -0.000002 0.000000 
-2.224106 33.414970 -3.471659 -10.283099 -1.506284 3.633072 6.083684 1.556928 -4.445878 12.086296 3.177756 -3.317952 0.000000 0.000000 0.000000 12.112674 3.083689 -3.298397 30.904844 1.645485 -3.990190 -2.591291 2.961593 -5.738696 0.000000 -0.000001 0.000003 0.051151 -19.230222 -20.982102 0.000000 0.000000 0.000000 4.852676 -36.960510 -32.152344 6.739161 -28.723859 1.369265 -8.972961 -8.751109 -1.470436 -20.780057 0.131081 -4.433535 -20.134402 35.301682 11.597066 -0.000013 0.000009 -0.000018 -0.000005 0.000001 -0.000000 -2.943806 21.290202 -21.292070 7.059006 10.202958 -66.897523 -0.000006 -0.000001 -0.000003 0.000001 0.000001 -0.000001 -15.195146 18.667283 -21.192991 7.557097 13.632488 -74.479347 0.000001 0.000000 -0.000007 0.000001 0.000002 -0.000000 -16.474382 16.391648 -36.743768 3.655758 13.711822 -88.528001 -0.000003 0.000010 -0.000014 0.000002 -0.000000 -0.000002 -0.076859 20.530189 20.303495 0.000000 0.000000 0.000000 6.411398 20.396586 41.725185 391.669384 45.382410 -377.619849 -9.496820 8.760647 12.468591 -20.787042 -0.131125 4.453352 -20.394091 -33.885484 -11.409670 0.000005 0.000004 -0.000016 -0.000003 -0.000007 0.000003 -1.978506 -21.846037 23.322098 7.606893 -10.233845 69.363515 0.000000 -0.000008 0.000003 -0.000000 -0.000000 -0.000001 -13.665501 -20.156395 23.639271 8.028574 -13.635645 76.097931 0.000006 0.000003 -0.000007 -0.000000 0.000000 0.000000 -15.196109 -17.695965 39.083814 4.414972 -13.872887 91.092512 -0.000006 0.000008 0.000024 0.000002 0.000001 0.000001 -2.330890 9.342386 -4.332501 21.656641 -0.712679 -0.382006 -9.571255 3.699344 3.004331 0.000003 -0.000001 -0.000001 -0.000000 -0.000001 0.000000 -7.084927 -14.201218 -18.102619 37.191227 3.063429 1.516985 -19.559401 -15.687490 5.310737 -0.000178 0.000034 0.000229 0.000000 0.000003 -0.000000 
-2.133946 33.410927 -3.444635 -10.227313 -1.664240 3.782737 5.735146 1.541041 -4.563869 11.386200 3.091535 -3.410621 0.000000 0.000000 0.000000 11.412666 3.001241 -3.392075 29.409435 1.908748 -3.558441 -2.904616 3.168591 -5.699417 -0.000001 -0.000001 0.000000 0.749352 -18.438174 -19.040158 0.000000 0.000000 0.000000 5.216741 -34.576241 -33.163673 8.558921 -28.595869 1.875519 -8.911196 -8.428461 -0.354344 -20.769169 -0.022917 -4.437832 -20.392681 35.279242 11.664890 -0.000010 0.000012 -0.000018 0.000005 -0.000001 -0.000003 -3.117344 21.240795 -20.904588 7.043531 10.221500 -66.993904 -0.000007 -0.000000 -0.000001 0.000000 0.000002 -0.000001 -15.595612 18.464003 -20.645988 7.606095 13.677459 -74.728055 0.000002 -0.000002 -0.000007 -0.000000 0.000001 -0.000000 -16.724157 16.271611 -36.573822 3.663835 13.766250 -88.667146 -0.000004 0.000007 -0.000011 0.000002 -0.000003 -0.000001 0.530504 19.695725 18.487696 0.000000 0.000000 0.000000 7.345189 20.182926 43.228636 390.746407 45.758852 -376.939917 -9.469266 9.415236 10.628585 -20.740315 0.021572 4.398372 -20.576925 -34.422825 -11.464952 0.000010 0.000009 -0.000012 -0.000001 0.000000 -0.000003 -2.049630 -21.916590 23.307095 7.546852 -10.250814 69.264238 -0.000000 -0.000007 0.000003 -0.000000 0.000000 0.000000 -13.762470 -20.183733 23.496768 8.029379 -13.664450 76.233995 0.000006 0.000003 -0.000007 0.000000 0.000000 -0.000001 -15.370173 -17.657651 38.844232 4.352161 -13.946559 91.070539 -0.000009 0.000008 0.000018 0.000001 -0.000000 -0.000001 -1.957740 9.671246 -4.740264 21.162667 -0.701716 -0.349075 -9.466226 3.549215 3.203425 -0.000005 -0.000001 -0.000000 0.000000 -0.000002 0.000000 -7.368014 -13.994636 -18.592321 37.439617 3.110422 1.537063 -19.547880 -15.594572 5.546155 -0.000170 0.000005 0.000220 0.000000 0.000002 0.000000 
-2.055326 33.403328 -3.414026 -10.118631 -1.786089 3.902622 5.397233 1.519308 -4.676855 10.707922 3.001653 -3.485508 0.000000 0.000000 0.000000 10.734437 2.915115 -3.467964 27.895261 2.104593 -3.063924 -3.214823 3.297947 -5.636960 -0.000000 0.000000 -0.000002 1.434093 -17.670116 -17.056500 0.000000 0.000000 0.000000 5.145477 -32.111687 -34.387796 10.769991 -28.265317 2.445287 -8.857749 -8.003921 0.678573 -20.767641 -0.044925 -4.438449 -20.458852 35.126474 11.622558 -0.000009 0.000011 -0.000021 0.000001 -0.000001 -0.000002 -3.289783 21.147874 -20.537631 7.042045 10.229085 -67.007223 -0.000004 0.000005 0.000000 0.000000 0.000005 0.000002 -15.847140 18.170603 -20.216557 7.621607 13.683817 -74.767451 0.000001 0.000002 -0.000007 0.000000 0.000001 -0.000001 -16.832404 16.215730 -36.522213 3.665657 13.774081 -88.687097 -0.000003 0.000012 -0.000011 -0.000001 0.000002 0.000002 1.094262 18.911728 16.755142 0.000000 0.000000 0.000000 7.613258 19.725270 44.846066 390.069672 45.972084 -376.293071 -9.425221 9.907780 8.931015 -20.733623 0.043379 4.390504 -20.493334 -34.883101 -11.516268 0.000011 0.000009 -0.000015 -0.000001 -0.000002 -0.000002 -2.056565 -21.947553 23.327114 7.478254 -10.265782 69.037134 0.000000 -0.000009 0.000003 0.000000 -0.000000 -0.000001 -13.849803 -20.139737 23.297412 8.028791 -13.689780 76.249507 0.000006 0.000002 -0.000007 -0.000000 -0.000001 0.000000 -15.424946 -17.556414 38.481358 4.330102 -13.959565 91.016266 -0.000006 0.000008 0.000020 -0.000001 0.000001 0.000002 -1.740762 9.937907 -5.079098 20.839703 -0.696592 -0.319187 -9.432828 3.427089 3.375321 -0.000000 0.000000 0.000004 0.000000 -0.000000 0.000000 -7.651407 -13.831203 -19.000616 37.640927 3.163777 1.555407 -19.545741 -15.523471 5.787998 -0.000225 -0.000010 0.000283 0.000000 0.000002 -0.000000 
